<svg xmlns="http://www.w3.org/2000/svg" xmlns:xlink="http://www.w3.org/1999/xlink" width="500" zoomAndPan="magnify" viewBox="0 0 375 374.999991" height="500" preserveAspectRatio="xMidYMid meet" version="1.0"><metadata><ContainsAiGeneratedContent>Yes</ContainsAiGeneratedContent></metadata><defs><clipPath id="47aedada52"><path d="M 37 37 L 339 37 L 339 339.289062 L 37 339.289062 Z M 37 37 " clip-rule="nonzero"/></clipPath><clipPath id="4811a6f502"><path d="M 74 59 L 307 59 L 307 339.289062 L 74 339.289062 Z M 74 59 " clip-rule="nonzero"/></clipPath></defs><rect x="-37.5" width="450" fill="#ffffff" y="-37.499999" height="449.999989" fill-opacity="1"/><rect x="-37.5" width="450" fill="#990906" y="-37.499999" height="449.999989" fill-opacity="1"/><g clip-path="url(#47aedada52)"><path fill="#f9ca1b" d="M 338.929688 184.523438 C 339.785156 216.652344 330.53125 246.699219 314.054688 271.621094 C 312.488281 273.996094 310.855469 276.324219 309.160156 278.597656 C 308.296875 279.753906 307.421875 280.894531 306.53125 282.019531 C 280.898438 314.445312 242.1875 336.167969 198.101562 339.054688 C 196.132812 339.183594 194.152344 339.277344 192.164062 339.328125 C 190.171875 339.382812 188.191406 339.394531 186.214844 339.371094 C 141.9375 338.835938 102.042969 319.121094 74.714844 287.980469 C 73.828125 286.976562 72.957031 285.953125 72.097656 284.921875 C 70.28125 282.738281 68.527344 280.503906 66.832031 278.214844 C 49.054688 254.207031 38.210938 224.695312 37.355469 192.5625 C 35.132812 109.285156 100.84375 39.972656 184.121094 37.753906 C 267.398438 35.53125 336.710938 101.242188 338.929688 184.523438 " fill-opacity="1" fill-rule="nonzero"/></g><g clip-path="url(#4811a6f502)"><path fill="#ffffff" d="M 306.53125 282.019531 C 280.898438 314.445312 242.1875 336.167969 198.101562 339.054688 C 196.132812 339.183594 194.152344 339.277344 192.164062 339.328125 C 190.171875 339.382812 188.191406 339.394531 186.214844 339.371094 C 141.9375 338.835938 102.042969 319.121094 74.714844 287.980469 C 85.027344 281.585938 100.777344 276.484375 110.496094 273.773438 C 121.515625 270.691406 139.429688 269.128906 149.1875 260.480469 L 151.304688 251.726562 L 155.460938 251.617188 C 157.554688 247.234375 159.195312 241.96875 158.605469 238.390625 C 157.683594 232.777344 152.644531 230.375 149.382812 226.203125 C 145.863281 221.707031 142.832031 216.738281 140.039062 211.765625 C 137.246094 206.808594 135.261719 201.648438 132.988281 196.445312 C 132.320312 194.917969 129.121094 199.636719 125.25 195.726562 C 115.417969 185.796875 114.785156 167.859375 114.34375 161.785156 C 113.625 151.902344 119.035156 155.808594 121.269531 157.035156 C 121.085938 152.386719 120.351562 116.03125 120.132812 107.960938 C 119.957031 101.335938 123.167969 79.007812 141.273438 84.164062 C 145.707031 85.425781 139.242188 71.726562 157.371094 69.796875 C 166.199219 68.863281 173.375 69.296875 187.003906 61.542969 C 192.414062 58.46875 207.617188 59.246094 213.34375 62.414062 C 229.3125 71.246094 224.832031 69.585938 234.144531 76.390625 C 243.824219 83.464844 236.4375 84.292969 245.527344 91.992188 C 253.777344 98.980469 249.507812 122.265625 249.996094 132.355469 C 250.050781 133.5625 250.652344 150.480469 250.855469 153.058594 C 253.253906 150.984375 257.683594 149.972656 257.472656 160.910156 C 257.316406 169.183594 255.441406 190.609375 246.550781 192.492188 C 242.535156 193.347656 243.515625 188.75 242.292969 193.023438 C 240.371094 199.746094 237.875 206.109375 234.878906 212.421875 C 231.214844 220.136719 226.4375 226.511719 221.796875 233.558594 C 218.304688 238.867188 221.109375 244.171875 222.648438 249.824219 L 226.765625 249.714844 L 229.292969 258.164062 C 240.988281 266.152344 264.054688 268.441406 273.148438 270.21875 C 284.191406 272.378906 296.003906 276.492188 306.53125 282.019531 " fill-opacity="1" fill-rule="nonzero"/></g></svg>