<svg xmlns="http://www.w3.org/2000/svg" xmlns:xlink="http://www.w3.org/1999/xlink" width="500" zoomAndPan="magnify" viewBox="0 0 375 374.999991" height="500" preserveAspectRatio="xMidYMid meet" version="1.0"><defs><clipPath id="b7f7dbe6f4"><path d="M 31.664062 106.148438 L 181 106.148438 L 181 342.859375 L 31.664062 342.859375 Z M 31.664062 106.148438 " clip-rule="nonzero"/></clipPath><clipPath id="b7536c2783"><path d="M 48 47.449219 L 165 47.449219 L 165 101 L 48 101 Z M 48 47.449219 " clip-rule="nonzero"/></clipPath><clipPath id="0de1241a1f"><path d="M 271 209.191406 L 359.414062 209.191406 L 359.414062 342.859375 L 271 342.859375 Z M 271 209.191406 " clip-rule="nonzero"/></clipPath><clipPath id="7224ad02e1"><path d="M 157.035156 275 L 301 275 L 301 342.859375 L 157.035156 342.859375 Z M 157.035156 275 " clip-rule="nonzero"/></clipPath></defs><g clip-path="url(#b7f7dbe6f4)"><path fill="#100f0d" d="M 151.933594 298.773438 L 31.664062 298.773438 L 31.664062 281.871094 L 161.070312 281.871094 C 156.785156 286.628906 153.601562 292.398438 151.933594 298.773438 Z M 167.121094 341.707031 C 164.980469 342.460938 162.707031 342.859375 160.386719 342.859375 L 52 342.859375 C 40.789062 342.859375 31.664062 333.746094 31.664062 322.539062 L 31.664062 305.59375 L 150.765625 305.59375 C 150.671875 306.730469 150.617188 307.878906 150.617188 309.039062 C 150.617188 322.414062 157.113281 334.296875 167.121094 341.707031 Z M 180.722656 193.109375 L 31.664062 193.109375 L 31.664062 275.050781 L 169.023438 275.050781 C 172.578125 272.71875 176.515625 270.929688 180.722656 269.796875 Z M 180.722656 169.382812 L 180.722656 186.289062 L 31.664062 186.289062 L 31.664062 169.382812 Z M 98.089844 259.875 L 114.292969 259.875 L 114.292969 245.585938 C 114.292969 243.699219 115.824219 242.175781 117.707031 242.175781 L 132.015625 242.175781 L 132.015625 225.984375 L 117.707031 225.984375 C 115.824219 225.984375 114.292969 224.457031 114.292969 222.574219 L 114.292969 208.28125 L 98.089844 208.28125 L 98.089844 222.574219 C 98.089844 224.457031 96.5625 225.984375 94.675781 225.984375 L 80.371094 225.984375 L 80.371094 242.175781 L 94.675781 242.175781 C 96.5625 242.175781 98.089844 243.699219 98.089844 245.585938 Z M 117.707031 266.695312 L 94.675781 266.695312 C 92.789062 266.695312 91.261719 265.167969 91.261719 263.285156 L 91.261719 248.996094 L 76.960938 248.996094 C 75.074219 248.996094 73.542969 247.46875 73.542969 245.585938 L 73.542969 222.574219 C 73.542969 220.6875 75.074219 219.160156 76.960938 219.160156 L 91.261719 219.160156 L 91.261719 204.871094 C 91.261719 202.988281 92.789062 201.460938 94.675781 201.460938 L 117.707031 201.460938 C 119.59375 201.460938 121.121094 202.988281 121.121094 204.871094 L 121.121094 219.160156 L 135.429688 219.160156 C 137.316406 219.160156 138.839844 220.6875 138.839844 222.574219 L 138.839844 245.585938 C 138.839844 247.46875 137.316406 248.996094 135.429688 248.996094 L 121.121094 248.996094 L 121.121094 263.285156 C 121.121094 265.167969 119.59375 266.695312 117.707031 266.695312 Z M 143.246094 106.941406 L 143.246094 112.578125 C 143.246094 118.601562 146.964844 123.65625 152.710938 125.453125 C 168.507812 130.402344 179.113281 144.730469 180.550781 162.566406 L 31.832031 162.566406 C 33.273438 144.726562 43.875 130.402344 59.671875 125.453125 C 65.421875 123.65625 69.136719 118.601562 69.136719 112.578125 L 69.136719 106.941406 L 143.246094 106.941406 " fill-opacity="1" fill-rule="evenodd"/></g><g clip-path="url(#b7536c2783)"><path fill="#100f0d" d="M 155.78125 100.121094 L 56.601562 100.121094 C 52.054688 100.121094 48.355469 96.425781 48.355469 91.878906 L 48.355469 62.671875 C 48.355469 54.316406 55.160156 47.515625 63.527344 47.515625 L 67.691406 47.515625 L 67.691406 73.820312 C 67.691406 75.703125 69.21875 77.230469 71.105469 77.230469 C 72.992188 77.230469 74.519531 75.703125 74.519531 73.820312 L 74.519531 47.515625 L 91.085938 47.515625 L 91.085938 73.820312 C 91.085938 75.703125 92.609375 77.230469 94.496094 77.230469 C 96.382812 77.230469 97.910156 75.703125 97.910156 73.820312 L 97.910156 47.515625 L 114.476562 47.515625 L 114.476562 73.820312 C 114.476562 75.703125 116.003906 77.230469 117.886719 77.230469 C 119.773438 77.230469 121.300781 75.703125 121.300781 73.820312 L 121.300781 47.515625 L 137.863281 47.515625 L 137.863281 73.820312 C 137.863281 75.703125 139.390625 77.230469 141.277344 77.230469 C 143.164062 77.230469 144.691406 75.703125 144.691406 73.820312 L 144.691406 47.515625 L 148.855469 47.515625 C 157.222656 47.515625 164.027344 54.316406 164.027344 62.671875 L 164.027344 91.878906 C 164.027344 96.425781 160.328125 100.121094 155.78125 100.121094 " fill-opacity="1" fill-rule="evenodd"/></g><path fill="#100f0d" d="M 195.273438 268.398438 L 203.550781 268.398438 L 259.777344 235.972656 C 254.871094 229.039062 247.761719 224.074219 239.449219 221.851562 C 230.023438 219.332031 220.1875 220.621094 211.738281 225.496094 C 203.292969 230.367188 197.25 238.234375 194.726562 247.644531 C 192.867188 254.578125 193.078125 261.738281 195.273438 268.398438 Z M 217.207031 268.398438 L 263.1875 241.882812 C 267.058594 250.316406 267.503906 259.804688 264.707031 268.398438 L 217.207031 268.398438 " fill-opacity="1" fill-rule="evenodd"/><g clip-path="url(#0de1241a1f)"><path fill="#100f0d" d="M 278.613281 256.496094 L 337.332031 290.167969 L 354.433594 260.578125 C 360.8125 249.542969 361.078125 237.855469 355.183594 227.660156 C 348.960938 216.886719 336.410156 209.652344 323.960938 209.652344 C 312.175781 209.652344 302.175781 215.726562 295.800781 226.757812 Z M 271.578125 268.671875 L 275.203125 262.398438 L 333.917969 296.074219 L 316.636719 325.976562 C 310.828125 336.023438 300.511719 342.105469 289.496094 342.816406 C 300.390625 335.515625 307.566406 323.097656 307.566406 309.039062 C 307.566406 288.210938 291.808594 271.003906 271.578125 268.671875 " fill-opacity="1" fill-rule="evenodd"/></g><g clip-path="url(#7224ad02e1)"><path fill="#100f0d" d="M 225.679688 342.859375 L 191.296875 342.859375 C 172.632812 342.859375 157.445312 327.691406 157.445312 309.039062 C 157.445312 290.390625 172.632812 275.222656 191.296875 275.222656 L 225.679688 275.222656 Z M 266.886719 342.859375 L 232.507812 342.859375 L 232.507812 275.222656 L 266.886719 275.222656 C 285.554688 275.222656 300.738281 290.390625 300.738281 309.039062 C 300.738281 327.6875 285.554688 342.859375 266.886719 342.859375 " fill-opacity="1" fill-rule="evenodd"/></g></svg>