<svg xmlns="http://www.w3.org/2000/svg" xmlns:xlink="http://www.w3.org/1999/xlink" width="500" zoomAndPan="magnify" viewBox="0 0 375 374.999991" height="500" preserveAspectRatio="xMidYMid meet" version="1.0"><defs><clipPath id="e858187029"><path d="M 76.195312 25.007812 L 298.945312 25.007812 L 298.945312 68 L 76.195312 68 Z M 76.195312 25.007812 " clip-rule="nonzero"/></clipPath><clipPath id="3dfd9b460b"><path d="M 76.195312 306 L 298.945312 306 L 298.945312 349.757812 L 76.195312 349.757812 Z M 76.195312 306 " clip-rule="nonzero"/></clipPath></defs><path fill="#201e1b" d="M 187.566406 71.933594 C 156.15625 71.933594 124.609375 71.933594 93.203125 71.933594 C 85.109375 148.855469 86.070312 225.914062 93.203125 302.835938 C 124.609375 302.835938 156.15625 302.835938 187.566406 302.835938 C 218.972656 302.835938 250.519531 302.835938 281.929688 302.835938 C 288.921875 225.914062 290.019531 148.855469 281.929688 71.933594 C 250.519531 71.933594 218.972656 71.933594 187.566406 71.933594 Z M 187.566406 258.839844 C 148.75 258.839844 117.339844 227.160156 117.339844 188.007812 C 117.339844 148.855469 148.75 117.171875 187.566406 117.171875 C 226.378906 117.171875 257.789062 148.855469 257.789062 188.007812 C 257.789062 227.160156 226.378906 258.839844 187.566406 258.839844 Z M 187.566406 258.839844 " fill-opacity="1" fill-rule="evenodd"/><g clip-path="url(#e858187029)"><path fill="#201e1b" d="M 187.566406 67.78125 C 218.972656 67.78125 250.519531 67.78125 281.929688 67.78125 C 289.746094 56.578125 296.054688 43.019531 298.9375 25.03125 C 261.765625 25.03125 224.734375 25.03125 187.566406 25.03125 C 150.394531 25.03125 113.226562 25.03125 76.195312 25.03125 C 79.074219 43.019531 85.382812 56.578125 93.203125 67.78125 C 124.609375 67.78125 156.15625 67.78125 187.566406 67.78125 Z M 267.117188 38.730469 C 267.117188 36.65625 268.761719 34.992188 270.820312 34.992188 C 272.875 34.992188 274.523438 36.65625 274.523438 38.730469 L 274.523438 55.46875 C 274.523438 57.542969 272.875 59.203125 270.820312 59.203125 C 268.761719 59.203125 267.117188 57.542969 267.117188 55.46875 Z M 246.269531 38.730469 C 246.269531 36.65625 247.914062 34.992188 249.972656 34.992188 C 252.027344 34.992188 253.675781 36.65625 253.675781 38.730469 C 253.675781 44.261719 253.675781 49.796875 253.675781 55.46875 C 253.675781 57.542969 252.027344 59.203125 249.972656 59.203125 C 247.914062 59.203125 246.269531 57.542969 246.269531 55.46875 C 246.269531 49.796875 246.269531 44.261719 246.269531 38.730469 Z M 225.558594 38.730469 C 225.558594 36.65625 227.203125 34.992188 229.125 34.992188 C 231.179688 34.992188 232.828125 36.65625 232.828125 38.730469 C 232.828125 44.261719 232.828125 49.796875 232.828125 55.46875 C 232.828125 57.542969 231.179688 59.203125 229.125 59.203125 C 227.203125 59.203125 225.558594 57.542969 225.558594 55.46875 C 225.558594 49.796875 225.558594 44.261719 225.558594 38.730469 Z M 204.710938 38.730469 C 204.710938 36.65625 206.355469 34.992188 208.414062 34.992188 C 210.46875 34.992188 212.117188 36.65625 212.117188 38.730469 C 212.117188 44.261719 212.117188 49.796875 212.117188 55.46875 C 212.117188 57.542969 210.46875 59.203125 208.414062 59.203125 C 206.355469 59.203125 204.710938 57.542969 204.710938 55.46875 C 204.710938 49.796875 204.710938 44.261719 204.710938 38.730469 Z M 183.863281 38.730469 C 183.863281 36.65625 185.507812 34.992188 187.566406 34.992188 C 189.621094 34.992188 191.269531 36.65625 191.269531 38.730469 C 191.269531 44.261719 191.269531 49.796875 191.269531 55.46875 C 191.269531 57.542969 189.621094 59.203125 187.566406 59.203125 C 185.507812 59.203125 183.863281 57.542969 183.863281 55.46875 C 183.863281 49.796875 183.863281 44.261719 183.863281 38.730469 Z M 163.015625 38.730469 C 163.015625 36.65625 164.660156 34.992188 166.71875 34.992188 C 168.773438 34.992188 170.421875 36.65625 170.421875 38.730469 C 170.421875 44.261719 170.421875 49.796875 170.421875 55.46875 C 170.421875 57.542969 168.773438 59.203125 166.71875 59.203125 C 164.660156 59.203125 163.015625 57.542969 163.015625 55.46875 C 163.015625 49.796875 163.015625 44.261719 163.015625 38.730469 Z M 142.167969 38.730469 C 142.167969 36.65625 143.949219 34.992188 145.871094 34.992188 C 147.925781 34.992188 149.574219 36.65625 149.574219 38.730469 C 149.574219 44.261719 149.574219 49.796875 149.574219 55.46875 C 149.574219 57.542969 147.925781 59.203125 145.871094 59.203125 C 143.949219 59.203125 142.167969 57.542969 142.167969 55.46875 C 142.167969 49.796875 142.167969 44.261719 142.167969 38.730469 Z M 121.457031 38.730469 C 121.457031 36.65625 123.101562 34.992188 125.15625 34.992188 C 127.078125 34.992188 128.863281 36.65625 128.863281 38.730469 C 128.863281 44.261719 128.863281 49.796875 128.863281 55.46875 C 128.863281 57.542969 127.078125 59.203125 125.15625 59.203125 C 123.101562 59.203125 121.457031 57.542969 121.457031 55.46875 C 121.457031 49.796875 121.457031 44.261719 121.457031 38.730469 Z M 100.609375 38.730469 C 100.609375 36.65625 102.253906 34.992188 104.3125 34.992188 C 106.367188 34.992188 108.015625 36.65625 108.015625 38.730469 L 108.015625 55.46875 C 108.015625 57.542969 106.367188 59.203125 104.3125 59.203125 C 102.253906 59.203125 100.609375 57.542969 100.609375 55.46875 Z M 100.609375 38.730469 " fill-opacity="1" fill-rule="evenodd"/></g><g clip-path="url(#3dfd9b460b)"><path fill="#201e1b" d="M 187.566406 306.984375 C 156.15625 306.984375 124.609375 306.984375 93.203125 306.984375 C 85.382812 318.328125 79.074219 331.75 76.195312 349.734375 C 113.226562 349.734375 150.394531 349.734375 187.566406 349.734375 C 224.734375 349.734375 261.765625 349.734375 298.9375 349.734375 C 296.054688 331.75 289.746094 318.328125 281.929688 306.984375 C 250.519531 306.984375 218.972656 306.984375 187.566406 306.984375 Z M 108.015625 336.175781 C 108.015625 338.25 106.367188 339.914062 104.3125 339.914062 C 102.253906 339.914062 100.609375 338.25 100.609375 336.175781 L 100.609375 319.4375 C 100.609375 317.363281 102.253906 315.703125 104.3125 315.703125 C 106.367188 315.703125 108.015625 317.363281 108.015625 319.4375 Z M 128.863281 336.175781 C 128.863281 338.25 127.078125 339.914062 125.15625 339.914062 C 123.101562 339.914062 121.457031 338.25 121.457031 336.175781 C 121.457031 330.503906 121.457031 324.972656 121.457031 319.4375 C 121.457031 317.363281 123.101562 315.703125 125.15625 315.703125 C 127.078125 315.703125 128.863281 317.363281 128.863281 319.4375 C 128.863281 324.972656 128.863281 330.503906 128.863281 336.175781 Z M 149.570312 336.175781 C 149.570312 338.25 147.925781 339.914062 145.867188 339.914062 C 143.949219 339.914062 142.164062 338.25 142.164062 336.175781 C 142.164062 330.503906 142.164062 324.972656 142.164062 319.4375 C 142.164062 317.363281 143.949219 315.703125 145.867188 315.703125 C 147.925781 315.703125 149.570312 317.363281 149.570312 319.4375 C 149.570312 324.972656 149.570312 330.503906 149.570312 336.175781 Z M 170.421875 336.175781 C 170.421875 338.25 168.773438 339.914062 166.71875 339.914062 C 164.660156 339.914062 163.015625 338.25 163.015625 336.175781 C 163.015625 330.503906 163.015625 324.972656 163.015625 319.4375 C 163.015625 317.363281 164.660156 315.703125 166.71875 315.703125 C 168.773438 315.703125 170.421875 317.363281 170.421875 319.4375 C 170.421875 324.972656 170.421875 330.503906 170.421875 336.175781 Z M 191.269531 336.175781 C 191.269531 338.25 189.621094 339.914062 187.566406 339.914062 C 185.507812 339.914062 183.863281 338.25 183.863281 336.175781 C 183.863281 330.503906 183.863281 324.972656 183.863281 319.4375 C 183.863281 317.363281 185.507812 315.703125 187.566406 315.703125 C 189.621094 315.703125 191.269531 317.363281 191.269531 319.4375 C 191.269531 324.972656 191.269531 330.503906 191.269531 336.175781 Z M 212.117188 336.175781 C 212.117188 338.25 210.46875 339.914062 208.414062 339.914062 C 206.355469 339.914062 204.710938 338.25 204.710938 336.175781 C 204.710938 330.503906 204.710938 324.972656 204.710938 319.4375 C 204.710938 317.363281 206.355469 315.703125 208.414062 315.703125 C 210.46875 315.703125 212.117188 317.363281 212.117188 319.4375 C 212.117188 324.972656 212.117188 330.503906 212.117188 336.175781 Z M 232.828125 336.175781 C 232.828125 338.25 231.179688 339.914062 229.125 339.914062 C 227.203125 339.914062 225.558594 338.25 225.558594 336.175781 C 225.558594 330.503906 225.558594 324.972656 225.558594 319.4375 C 225.558594 317.363281 227.203125 315.703125 229.125 315.703125 C 231.179688 315.703125 232.828125 317.363281 232.828125 319.4375 C 232.828125 324.972656 232.828125 330.503906 232.828125 336.175781 Z M 253.675781 336.175781 C 253.675781 338.25 252.027344 339.914062 249.972656 339.914062 C 247.914062 339.914062 246.265625 338.25 246.265625 336.175781 C 246.265625 330.503906 246.265625 324.972656 246.265625 319.4375 C 246.265625 317.363281 247.914062 315.703125 249.972656 315.703125 C 252.027344 315.703125 253.675781 317.363281 253.675781 319.4375 C 253.675781 324.972656 253.675781 330.503906 253.675781 336.175781 Z M 274.523438 336.175781 C 274.523438 338.25 272.875 339.914062 270.820312 339.914062 C 268.761719 339.914062 267.117188 338.25 267.117188 336.175781 L 267.117188 319.4375 C 267.117188 317.363281 268.761719 315.703125 270.820312 315.703125 C 272.875 315.703125 274.523438 317.363281 274.523438 319.4375 Z M 274.523438 336.175781 " fill-opacity="1" fill-rule="evenodd"/></g><path fill="#201e1b" d="M 214.996094 172.234375 L 214.996094 172.097656 L 214.859375 171.957031 C 214.308594 169.882812 213.488281 167.945312 212.390625 166.148438 C 227.75 158.398438 221.992188 140.414062 221.992188 140.414062 C 220.207031 152.3125 209.785156 156.738281 204.160156 158.125 C 203.199219 157.707031 202.101562 157.429688 201.144531 157.152344 C 202.101562 156.324219 203.0625 155.492188 203.613281 154.386719 C 201.007812 153.558594 198.539062 153.835938 196.070312 154.527344 C 197.164062 152.035156 197.851562 149.546875 197.988281 146.777344 C 195.246094 147.195312 192.914062 148.855469 191.132812 152.175781 C 190.308594 149.40625 189.210938 144.839844 187.566406 144.148438 C 185.917969 144.839844 184.683594 149.40625 184 152.175781 C 182.21875 148.855469 179.886719 147.195312 177.140625 146.777344 C 177.28125 149.546875 177.964844 152.035156 179.0625 154.527344 C 176.59375 153.835938 174.125 153.558594 171.519531 154.386719 C 172.066406 155.496094 173.027344 156.324219 173.988281 157.152344 C 172.890625 157.429688 171.929688 157.707031 170.96875 158.125 C 165.347656 156.738281 154.921875 152.3125 153.140625 140.414062 C 153.140625 140.414062 147.378906 158.398438 162.742188 166.148438 C 161.644531 167.945312 160.820312 169.882812 160.273438 171.957031 L 160.136719 172.097656 L 160.136719 172.234375 C 157.117188 169.050781 150.808594 165.59375 138.054688 167.394531 C 138.054688 167.394531 134.488281 187.039062 158.761719 183.164062 L 158.761719 183.441406 C 159.3125 195.0625 160.820312 206.960938 161.917969 218.71875 C 162.464844 224.113281 166.171875 228.542969 171.246094 228.542969 L 173.851562 228.542969 C 174.535156 230.0625 175.90625 231.171875 177.414062 231.863281 L 177.414062 232.96875 C 177.414062 234.351562 178.648438 235.597656 180.160156 235.597656 L 194.972656 235.597656 C 196.480469 235.597656 197.714844 234.351562 197.714844 232.96875 L 197.714844 231.863281 C 199.222656 231.171875 200.457031 230.0625 201.28125 228.542969 L 203.75 228.542969 C 208.960938 228.542969 212.664062 224.113281 213.214844 218.71875 C 214.171875 206.960938 215.820312 195.0625 216.367188 183.441406 L 216.367188 183.164062 C 240.644531 187.039062 237.078125 167.394531 237.078125 167.394531 C 224.183594 165.59375 218.015625 169.050781 214.996094 172.234375 Z M 214.996094 172.234375 " fill-opacity="1" fill-rule="evenodd"/></svg>