<svg xmlns="http://www.w3.org/2000/svg" xmlns:xlink="http://www.w3.org/1999/xlink" width="500" zoomAndPan="magnify" viewBox="0 0 375 374.999991" height="500" preserveAspectRatio="xMidYMid meet" version="1.0"><defs><clipPath id="a6d91a4c58"><path d="M 46.242188 195 L 343 195 L 343 347.261719 L 46.242188 347.261719 Z M 46.242188 195 " clip-rule="nonzero"/></clipPath><clipPath id="12ddb95e2e"><path d="M 120 16.511719 L 270 16.511719 L 270 205 L 120 205 Z M 120 16.511719 " clip-rule="nonzero"/></clipPath></defs><g clip-path="url(#a6d91a4c58)"><path fill="#000000" d="M 144.625 347.261719 L 245.226562 347.261719 C 299.175781 347.261719 342.910156 347.398438 342.910156 293.320312 C 342.910156 252.84375 318.390625 218.132812 283.429688 203.222656 C 283.597656 203.554688 283.785156 203.863281 283.945312 204.203125 C 286.027344 208.671875 287.375 213.324219 287.984375 217.847656 C 289.496094 218.269531 290.984375 218.851562 292.425781 219.621094 C 303.140625 225.367188 307.175781 238.71875 301.441406 249.457031 C 295.710938 260.195312 282.386719 264.234375 271.671875 258.496094 C 260.957031 252.753906 256.929688 239.390625 262.65625 228.660156 C 265.867188 222.640625 271.464844 218.730469 277.660156 217.457031 C 276.328125 210.667969 272.871094 203.246094 267.375 197.960938 C 263.089844 196.964844 258.699219 196.238281 254.21875 195.828125 C 253.828125 213.683594 194.925781 257.488281 194.925781 257.488281 C 194.925781 257.488281 136.023438 213.683594 135.636719 195.832031 C 132.492188 196.121094 129.386719 196.5625 126.335938 197.140625 C 119.605469 202.523438 114.875 210.226562 113.578125 216.488281 C 115.984375 217.84375 117.867188 220.070312 118.921875 222.808594 C 128.074219 226.832031 136.195312 235.863281 142.453125 248.976562 C 143.375 250.914062 143.375 253.121094 142.496094 255.050781 C 146.371094 264.777344 148.589844 275.410156 148.589844 284.355469 C 148.589844 298.515625 147.976562 307.386719 136.132812 309.738281 C 135 310.851562 133.488281 311.476562 131.898438 311.476562 L 122.800781 311.476562 C 119.441406 311.476562 116.707031 308.738281 116.707031 305.367188 L 116.707031 305.226562 C 116.78125 301.925781 119.492188 299.253906 122.800781 299.253906 L 131.898438 299.253906 C 132.78125 299.253906 133.648438 299.449219 134.449219 299.824219 C 136.605469 299.367188 136.964844 298.75 137.160156 298.40625 C 138.300781 296.441406 138.53125 291.574219 138.53125 284.355469 C 138.53125 276.558594 136.546875 267.21875 133.082031 258.613281 C 131.527344 257.921875 130.257812 256.703125 129.527344 255.167969 C 123.5625 242.65625 115.484375 234.882812 108.460938 234.882812 C 101.285156 234.882812 92.808594 243.269531 86.875 256.253906 C 86.0625 258.023438 84.5625 259.386719 82.742188 260.027344 C 79.570312 268.351562 77.828125 276.953125 77.828125 284.347656 C 77.828125 290.007812 77.941406 296.226562 79.308594 298.429688 C 79.519531 298.765625 79.941406 299.4375 82.375 299.890625 C 83.21875 299.46875 84.148438 299.246094 85.109375 299.246094 L 94.21875 299.246094 C 97.457031 299.246094 100.109375 301.789062 100.296875 304.992188 L 100.3125 305.027344 L 100.3125 305.367188 C 100.3125 308.738281 97.578125 311.476562 94.21875 311.476562 L 85.109375 311.476562 C 83.613281 311.476562 82.171875 310.914062 81.058594 309.902344 C 77.785156 309.363281 73.441406 308.066406 70.765625 303.769531 C 68.234375 299.679688 67.765625 294.027344 67.765625 284.355469 C 67.765625 275.527344 69.851562 265.367188 73.640625 255.667969 C 73.003906 253.90625 73.078125 251.984375 73.859375 250.285156 C 77.609375 242.0625 82.355469 235.054688 87.578125 230.015625 C 90.621094 227.0625 93.894531 224.757812 97.308594 223.144531 C 98.421875 220.023438 100.640625 217.503906 103.449219 216.144531 C 104.089844 211.589844 105.867188 206.84375 108.546875 202.332031 C 72.460938 216.722656 46.945312 252.027344 46.945312 293.320312 C 46.945312 347.398438 90.675781 347.261719 144.625 347.261719 Z M 220.59375 292.597656 C 220.59375 291.324219 221.742188 290.300781 223.160156 290.300781 L 237.097656 290.300781 L 237.097656 276.335938 C 237.097656 274.910156 238.117188 273.761719 239.382812 273.761719 L 253.136719 273.761719 C 254.398438 273.761719 255.425781 274.910156 255.425781 276.335938 L 255.425781 290.300781 L 269.363281 290.300781 C 270.78125 290.300781 271.925781 291.324219 271.925781 292.597656 L 271.925781 306.378906 C 271.925781 307.648438 270.777344 308.675781 269.363281 308.675781 L 255.425781 308.675781 L 255.425781 322.640625 C 255.425781 324.0625 254.398438 325.210938 253.136719 325.210938 L 239.382812 325.210938 C 238.117188 325.210938 237.097656 324.0625 237.097656 322.640625 L 237.097656 308.675781 L 223.160156 308.675781 C 221.742188 308.675781 220.59375 307.648438 220.59375 306.378906 Z M 220.59375 292.597656 " fill-opacity="1" fill-rule="nonzero"/></g><g clip-path="url(#12ddb95e2e)"><path fill="#000000" d="M 121.035156 107.339844 C 121.085938 108.046875 121.148438 108.746094 121.214844 109.449219 C 125.925781 162.90625 157.125 204.207031 194.925781 204.207031 C 232.71875 204.207031 263.925781 162.90625 268.640625 109.449219 C 268.707031 108.746094 268.761719 108.046875 268.820312 107.339844 C 269.15625 105.019531 269.375 102.671875 269.511719 100.289062 C 269.605469 98.664062 269.671875 97.027344 269.671875 95.375 C 269.671875 91.308594 269.375 87.3125 268.820312 83.40625 C 263.351562 45.53125 232.351562 16.511719 194.925781 16.511719 C 157.5 16.511719 126.5 45.53125 121.035156 83.40625 C 120.472656 87.3125 120.183594 91.308594 120.183594 95.375 C 120.183594 97.027344 120.25 98.664062 120.335938 100.289062 C 120.476562 102.671875 120.699219 105.019531 121.035156 107.339844 Z M 148.820312 64.820312 C 148.820312 64.820312 170.332031 75.289062 194.925781 75.960938 C 219.519531 75.289062 241.03125 64.820312 241.03125 64.820312 C 256.621094 70.984375 249.230469 114.921875 249.230469 114.925781 C 253.125 112.203125 256.691406 110.785156 259.597656 110.054688 C 255.3125 156.75 228 192.753906 194.925781 192.753906 C 161.851562 192.753906 134.53125 156.75 130.242188 110.054688 C 133.152344 110.785156 136.726562 112.203125 140.613281 114.925781 C 140.617188 114.921875 133.230469 70.984375 148.820312 64.820312 Z M 148.820312 64.820312 " fill-opacity="1" fill-rule="nonzero"/></g><path fill="#000000" d="M 293.042969 239.0625 C 293.042969 239.785156 292.972656 240.503906 292.832031 241.214844 C 292.691406 241.921875 292.484375 242.613281 292.207031 243.28125 C 291.929688 243.949219 291.59375 244.585938 291.191406 245.1875 C 290.789062 245.789062 290.332031 246.347656 289.824219 246.859375 C 289.3125 247.371094 288.757812 247.828125 288.15625 248.230469 C 287.554688 248.632812 286.921875 248.972656 286.253906 249.25 C 285.585938 249.523438 284.898438 249.734375 284.191406 249.875 C 283.484375 250.015625 282.765625 250.085938 282.042969 250.085938 C 281.324219 250.085938 280.605469 250.015625 279.898438 249.875 C 279.191406 249.734375 278.503906 249.523438 277.835938 249.25 C 277.167969 248.972656 276.535156 248.632812 275.933594 248.230469 C 275.332031 247.828125 274.777344 247.371094 274.265625 246.859375 C 273.757812 246.347656 273.300781 245.789062 272.898438 245.1875 C 272.496094 244.585938 272.160156 243.949219 271.882812 243.28125 C 271.605469 242.613281 271.398438 241.921875 271.257812 241.214844 C 271.117188 240.503906 271.046875 239.785156 271.046875 239.0625 C 271.046875 238.339844 271.117188 237.621094 271.257812 236.910156 C 271.398438 236.203125 271.605469 235.511719 271.882812 234.84375 C 272.160156 234.175781 272.496094 233.539062 272.898438 232.9375 C 273.300781 232.335938 273.757812 231.777344 274.265625 231.265625 C 274.777344 230.753906 275.332031 230.296875 275.933594 229.894531 C 276.535156 229.492188 277.167969 229.152344 277.835938 228.875 C 278.503906 228.597656 279.191406 228.390625 279.898438 228.25 C 280.605469 228.109375 281.324219 228.039062 282.042969 228.039062 C 282.765625 228.039062 283.484375 228.109375 284.191406 228.25 C 284.898438 228.390625 285.585938 228.597656 286.253906 228.875 C 286.921875 229.152344 287.554688 229.492188 288.15625 229.894531 C 288.757812 230.296875 289.3125 230.753906 289.824219 231.265625 C 290.332031 231.777344 290.789062 232.335938 291.191406 232.9375 C 291.59375 233.539062 291.929688 234.175781 292.207031 234.84375 C 292.484375 235.511719 292.691406 236.203125 292.832031 236.910156 C 292.972656 237.621094 293.042969 238.339844 293.042969 239.0625 Z M 293.042969 239.0625 " fill-opacity="1" fill-rule="nonzero"/></svg>