<svg xmlns="http://www.w3.org/2000/svg" xmlns:xlink="http://www.w3.org/1999/xlink" width="500" zoomAndPan="magnify" viewBox="0 0 375 374.999991" height="500" preserveAspectRatio="xMidYMid meet" version="1.0"><defs><clipPath id="776dc55681"><path d="M 64 254 L 323 254 L 323 351.328125 L 64 351.328125 Z M 64 254 " clip-rule="nonzero"/></clipPath><clipPath id="a46c83798a"><path d="M 37.5 210 L 350.25 210 L 350.25 248 L 37.5 248 Z M 37.5 210 " clip-rule="nonzero"/></clipPath><clipPath id="85998b50bb"><path d="M 54 32.578125 L 334 32.578125 L 334 90 L 54 90 Z M 54 32.578125 " clip-rule="nonzero"/></clipPath></defs><g clip-path="url(#776dc55681)"><path fill="#000000" d="M 319.0625 351.183594 L 68.679688 351.183594 C 66.621094 351.183594 64.949219 349.511719 64.949219 347.449219 L 64.949219 254.851562 L 104.023438 254.851562 L 104.023438 307.695312 C 104.023438 309.761719 105.699219 311.425781 107.761719 311.425781 C 109.824219 311.425781 111.5 309.761719 111.5 307.695312 L 111.5 254.851562 L 161.433594 254.851562 L 161.433594 328.191406 C 161.433594 330.25 163.105469 331.925781 165.171875 331.925781 C 167.234375 331.925781 168.90625 330.25 168.90625 328.191406 L 168.90625 254.851562 L 218.839844 254.851562 L 218.839844 300.863281 C 218.839844 302.921875 220.515625 304.59375 222.578125 304.59375 C 224.640625 304.59375 226.316406 302.921875 226.316406 300.863281 L 226.316406 254.851562 L 276.25 254.851562 L 276.25 310.109375 C 276.25 312.175781 277.925781 313.84375 279.988281 313.84375 C 282.050781 313.84375 283.726562 312.175781 283.726562 310.109375 L 283.726562 254.851562 L 322.800781 254.851562 L 322.800781 347.449219 C 322.800781 349.511719 321.128906 351.183594 319.0625 351.183594 Z M 319.0625 351.183594 " fill-opacity="1" fill-rule="evenodd"/></g><g clip-path="url(#a46c83798a)"><path fill="#000000" d="M 346.503906 247.382812 L 41.246094 247.382812 C 39.183594 247.382812 37.507812 245.710938 37.507812 243.652344 L 37.507812 213.84375 C 37.507812 211.785156 39.183594 210.109375 41.246094 210.109375 L 346.503906 210.109375 C 348.566406 210.109375 350.242188 211.785156 350.242188 213.84375 L 350.242188 243.652344 C 350.242188 245.710938 348.566406 247.382812 346.503906 247.382812 Z M 346.503906 247.382812 " fill-opacity="1" fill-rule="evenodd"/></g><path fill="#000000" d="M 318.882812 217.578125 L 68.867188 217.578125 C 66.800781 217.578125 65.128906 215.902344 65.128906 213.84375 L 65.128906 120.921875 C 65.128906 118.863281 66.800781 117.1875 68.867188 117.1875 C 70.929688 117.1875 72.605469 118.863281 72.605469 120.921875 L 72.605469 210.109375 L 315.144531 210.109375 L 315.144531 120.921875 C 315.144531 118.863281 316.820312 117.1875 318.882812 117.1875 C 320.949219 117.1875 322.621094 118.863281 322.621094 120.921875 L 322.621094 213.84375 C 322.621094 215.910156 320.949219 217.578125 318.882812 217.578125 Z M 318.882812 217.578125 " fill-opacity="1" fill-rule="evenodd"/><g clip-path="url(#85998b50bb)"><path fill="#000000" d="M 54.191406 89.800781 L 73.117188 35.171875 C 73.632812 33.667969 75.054688 32.660156 76.644531 32.660156 L 117.144531 32.660156 L 102.363281 89.359375 Z M 124.863281 32.660156 L 165.808594 32.660156 L 161.035156 88.820312 L 110.105469 89.285156 Z M 173.308594 32.660156 L 212.414062 32.660156 L 217.28125 88.300781 L 168.542969 88.75 Z M 219.917969 32.660156 L 258.320312 32.660156 L 274.835938 87.773438 L 224.78125 88.234375 Z M 266.117188 32.660156 L 309.300781 32.660156 C 310.84375 32.660156 312.222656 33.605469 312.78125 35.035156 L 333.109375 87.246094 L 282.617188 87.703125 Z M 266.117188 32.660156 " fill-opacity="1" fill-rule="evenodd"/></g><path fill="#000000" d="M 83.210938 128.65625 C 65.898438 128.65625 51.808594 114.585938 51.808594 97.289062 L 335.828125 94.679688 C 335.902344 95.621094 335.941406 96.472656 335.941406 97.289062 C 335.941406 114.585938 321.847656 128.65625 304.535156 128.65625 C 292.585938 128.65625 282.175781 121.953125 276.871094 112.117188 C 271.5625 121.953125 261.152344 128.65625 249.203125 128.65625 C 237.253906 128.65625 226.84375 121.953125 221.535156 112.117188 C 216.234375 121.953125 205.824219 128.65625 193.875 128.65625 C 181.925781 128.65625 171.515625 121.953125 166.207031 112.117188 C 160.90625 121.953125 150.496094 128.65625 138.546875 128.65625 C 126.597656 128.65625 116.1875 121.953125 110.878906 112.117188 C 105.570312 121.953125 95.160156 128.65625 83.210938 128.65625 Z M 83.210938 128.65625 " fill-opacity="1" fill-rule="evenodd"/></svg>