<svg xmlns="http://www.w3.org/2000/svg" xmlns:xlink="http://www.w3.org/1999/xlink" width="500" zoomAndPan="magnify" viewBox="0 0 375 374.999991" height="500" preserveAspectRatio="xMidYMid meet" version="1.0"><defs><clipPath id="ea1db07bbc"><path d="M 92 173 L 282 173 L 282 360.4375 L 92 360.4375 Z M 92 173 " clip-rule="nonzero"/></clipPath><clipPath id="b37feb8f41"><path d="M 92 14.6875 L 282 14.6875 L 282 48 L 92 48 Z M 92 14.6875 " clip-rule="nonzero"/></clipPath><clipPath id="881cce0dca"><path d="M 47.089844 57 L 327.589844 57 L 327.589844 167 L 47.089844 167 Z M 47.089844 57 " clip-rule="nonzero"/></clipPath></defs><g clip-path="url(#ea1db07bbc)"><path fill="#000000" d="M 267.984375 173.789062 C 263.941406 175.949219 259.355469 177.03125 254.5 177.03125 C 249.644531 177.03125 245.058594 175.949219 241.015625 173.789062 C 236.96875 175.949219 232.382812 177.03125 227.527344 177.03125 C 222.671875 177.03125 218.089844 175.949219 214.042969 173.789062 C 209.996094 175.949219 205.410156 177.03125 200.558594 177.03125 C 195.703125 177.03125 191.117188 175.949219 187.070312 173.789062 C 183.027344 175.949219 178.441406 177.03125 173.585938 177.03125 C 168.730469 177.03125 164.144531 175.949219 160.101562 173.789062 C 156.054688 175.949219 151.46875 177.03125 146.613281 177.03125 C 141.761719 177.03125 137.175781 175.949219 133.128906 173.789062 C 129.082031 175.949219 124.5 177.03125 119.644531 177.03125 C 114.789062 177.03125 110.203125 175.949219 106.160156 173.789062 C 102.113281 175.949219 97.527344 177.03125 92.941406 177.03125 L 92.941406 338.828125 C 92.941406 350.714844 102.652344 360.4375 114.519531 360.4375 L 260.164062 360.4375 C 272.03125 360.4375 281.742188 350.714844 281.742188 338.828125 L 281.742188 177.03125 C 276.886719 177.03125 272.300781 175.949219 267.984375 173.789062 Z M 171.160156 265.898438 L 171.160156 225.378906 C 171.160156 222.410156 173.585938 219.976562 176.554688 219.976562 L 184.375 219.976562 L 165.765625 196.207031 L 147.15625 219.976562 L 154.976562 219.976562 C 157.941406 219.976562 160.371094 222.410156 160.371094 225.378906 L 160.371094 249.691406 C 160.371094 252.664062 157.941406 255.09375 154.976562 255.09375 C 152.007812 255.09375 149.582031 252.664062 149.582031 249.691406 L 149.582031 230.78125 L 136.097656 230.78125 C 133.9375 230.78125 132.050781 229.703125 131.242188 227.8125 C 130.433594 225.921875 130.703125 223.761719 131.78125 222.140625 L 161.449219 184.324219 C 163.605469 181.621094 167.921875 181.621094 169.808594 184.324219 L 199.476562 222.140625 C 200.828125 223.761719 201.097656 225.921875 200.019531 227.8125 C 199.207031 229.703125 197.320312 230.78125 195.164062 230.78125 L 181.675781 230.78125 L 181.675781 265.898438 C 181.675781 268.871094 179.25 271.300781 176.285156 271.300781 C 173.316406 271.300781 171.160156 268.871094 171.160156 265.898438 Z M 242.902344 290.75 L 213.234375 328.566406 C 212.15625 329.914062 210.535156 330.726562 208.917969 330.726562 C 207.300781 330.726562 205.683594 329.914062 204.601562 328.566406 L 174.933594 290.75 C 173.585938 289.128906 173.316406 286.96875 174.394531 285.078125 C 175.203125 283.1875 177.09375 282.105469 179.25 282.105469 L 192.734375 282.105469 L 192.734375 246.988281 C 192.734375 244.019531 195.164062 241.585938 198.128906 241.585938 C 201.097656 241.585938 203.523438 244.019531 203.523438 246.988281 L 203.523438 287.507812 C 203.523438 290.480469 201.097656 292.910156 198.128906 292.910156 L 190.308594 292.910156 L 208.917969 316.679688 L 227.527344 292.910156 L 219.707031 292.910156 C 216.738281 292.910156 214.3125 290.480469 214.3125 287.507812 L 214.3125 263.195312 C 214.3125 260.226562 216.738281 257.792969 219.707031 257.792969 C 222.671875 257.792969 225.101562 260.226562 225.101562 263.195312 L 225.101562 282.105469 L 238.585938 282.105469 C 240.746094 282.105469 242.632812 283.1875 243.441406 285.078125 C 244.25 286.96875 243.980469 289.128906 242.902344 290.75 Z M 242.902344 290.75 " fill-opacity="1" fill-rule="nonzero"/></g><g clip-path="url(#b37feb8f41)"><path fill="#000000" d="M 281.742188 47.375 L 281.742188 36.300781 C 281.742188 24.414062 272.03125 14.691406 260.164062 14.691406 L 114.519531 14.691406 C 102.652344 14.691406 92.941406 24.414062 92.941406 36.300781 L 92.941406 46.832031 C 93.480469 46.832031 281.199219 47.375 281.742188 47.375 Z M 226.179688 25.496094 C 225.371094 27.117188 225.101562 29.007812 225.101562 30.898438 C 225.101562 33.867188 222.671875 36.300781 219.707031 36.300781 L 154.976562 36.300781 C 152.007812 36.300781 149.582031 33.867188 149.582031 30.898438 C 149.582031 29.007812 149.3125 27.117188 148.503906 25.496094 Z M 226.179688 25.496094 " fill-opacity="1" fill-rule="nonzero"/></g><g clip-path="url(#881cce0dca)"><path fill="#000000" d="M 325.433594 124.085938 C 304.125 107.878906 297.921875 84.378906 296.035156 71.953125 C 294.957031 63.851562 288.214844 58.179688 280.121094 58.179688 L 94.832031 57.636719 C 86.738281 57.636719 79.996094 63.3125 78.917969 71.414062 C 77.03125 83.839844 70.554688 107.339844 49.25 123.546875 C 47.902344 124.628906 47.089844 126.246094 47.089844 127.867188 L 47.089844 146.777344 C 47.089844 151.910156 48.980469 156.5 52.484375 160.28125 C 55.992188 163.792969 60.847656 165.957031 65.703125 165.957031 C 70.824219 165.957031 75.410156 164.0625 78.917969 160.554688 C 78.917969 160.554688 78.917969 160.554688 79.1875 160.28125 C 79.1875 160.28125 79.1875 160.28125 79.457031 160.554688 C 82.964844 164.0625 87.816406 166.226562 92.671875 166.226562 C 97.796875 166.226562 102.652344 164.0625 106.160156 160.554688 C 106.160156 160.554688 106.160156 160.554688 106.429688 160.824219 C 109.933594 164.335938 114.789062 166.496094 119.644531 166.496094 C 124.769531 166.496094 129.351562 164.605469 132.859375 161.09375 C 132.859375 161.09375 132.859375 161.09375 133.128906 160.824219 C 133.128906 160.824219 133.128906 160.824219 133.398438 161.09375 C 136.90625 164.605469 141.761719 166.765625 146.613281 166.765625 C 152.007812 166.765625 156.59375 164.605469 160.101562 161.09375 C 163.605469 164.605469 168.191406 166.765625 173.585938 166.765625 C 178.980469 166.765625 183.566406 164.605469 187.070312 161.09375 C 190.578125 164.605469 195.164062 166.765625 200.558594 166.765625 C 205.953125 166.765625 210.535156 164.605469 214.042969 161.09375 C 217.550781 164.605469 222.132812 166.765625 227.527344 166.765625 C 232.652344 166.765625 237.238281 164.875 240.746094 161.363281 C 240.746094 161.363281 240.746094 161.363281 241.015625 161.09375 C 244.519531 164.605469 249.105469 166.765625 254.5 166.765625 C 259.625 166.765625 264.210938 164.875 267.714844 161.363281 C 267.714844 161.363281 267.714844 161.363281 267.984375 161.09375 C 271.492188 164.605469 276.078125 166.765625 281.472656 166.765625 C 286.863281 166.765625 291.449219 164.605469 294.957031 161.09375 C 298.460938 164.605469 303.046875 166.765625 308.441406 166.765625 C 318.960938 166.765625 327.320312 158.390625 327.320312 147.855469 L 327.320312 128.949219 C 327.589844 126.789062 326.78125 125.167969 325.433594 124.085938 Z M 76.21875 123.546875 C 74.871094 124.628906 74.0625 126.246094 74.0625 127.867188 L 74.0625 146.777344 C 74.0625 148.9375 73.253906 151.097656 71.636719 152.449219 C 70.015625 154.070312 68.128906 154.878906 65.972656 154.878906 C 63.8125 154.878906 61.65625 154.070312 60.308594 152.449219 C 58.6875 150.828125 57.878906 148.9375 57.878906 146.777344 L 57.878906 130.570312 C 80.535156 112.203125 87.277344 86.8125 89.4375 73.304688 C 89.707031 70.605469 92.132812 68.714844 94.832031 68.714844 L 106.160156 68.714844 C 104.808594 79.789062 99.144531 105.988281 76.21875 123.546875 Z M 103.191406 123.546875 C 101.84375 124.628906 101.035156 126.246094 101.035156 127.867188 L 101.035156 146.777344 C 101.035156 151.367188 97.527344 154.878906 92.941406 154.878906 C 90.785156 154.878906 88.628906 154.070312 87.277344 152.449219 C 85.660156 150.828125 84.851562 148.9375 84.851562 146.777344 L 84.851562 130.570312 C 110.472656 109.769531 115.867188 80.597656 116.945312 68.714844 L 133.128906 68.714844 C 131.78125 79.789062 126.117188 105.988281 103.191406 123.546875 Z M 130.164062 123.816406 C 128.8125 124.898438 128.003906 126.519531 128.003906 128.140625 L 128.003906 147.046875 C 128.003906 149.207031 127.195312 151.367188 125.578125 152.71875 C 123.960938 154.339844 122.070312 155.152344 119.914062 155.152344 C 117.753906 155.152344 115.597656 154.339844 114.25 152.71875 C 112.632812 151.097656 111.820312 149.207031 111.820312 147.046875 L 111.820312 130.839844 C 137.445312 110.039062 142.839844 80.867188 143.917969 68.984375 L 160.101562 68.984375 C 158.753906 79.789062 153.089844 106.257812 130.164062 123.816406 Z M 157.132812 123.816406 C 156.054688 124.628906 155.246094 125.976562 154.976562 127.328125 C 154.976562 127.597656 154.976562 127.867188 154.976562 128.140625 L 154.976562 147.046875 C 154.976562 151.640625 151.46875 155.152344 146.882812 155.152344 C 144.726562 155.152344 142.570312 154.339844 141.222656 152.71875 C 139.601562 151.097656 138.792969 149.207031 138.792969 147.046875 L 138.792969 130.839844 C 164.414062 110.039062 169.808594 80.867188 170.890625 68.984375 L 187.070312 68.984375 C 185.722656 80.058594 180.058594 106.257812 157.132812 123.816406 Z M 208.917969 147.046875 C 208.917969 149.207031 208.109375 151.367188 206.492188 152.71875 C 204.871094 154.339844 202.984375 155.152344 200.828125 155.152344 C 196.242188 155.152344 192.734375 151.367188 192.734375 147.046875 L 192.734375 128.140625 C 192.734375 125.167969 190.308594 122.738281 187.339844 122.738281 C 184.375 122.738281 181.945312 125.167969 181.945312 128.140625 L 181.945312 147.046875 C 181.945312 151.640625 178.441406 155.152344 173.855469 155.152344 C 169.269531 155.152344 165.765625 151.367188 165.765625 147.046875 L 165.765625 130.839844 C 175.742188 122.738281 182.757812 113.28125 187.339844 104.097656 C 192.734375 114.632812 200.019531 123.546875 208.917969 130.839844 Z M 235.890625 147.046875 C 235.890625 149.207031 235.082031 151.367188 233.460938 152.71875 C 231.84375 154.339844 229.957031 155.152344 227.796875 155.152344 C 223.214844 155.152344 219.707031 151.367188 219.707031 147.046875 L 219.707031 128.140625 C 219.707031 126.789062 219.167969 125.167969 218.089844 124.355469 C 217.820312 124.085938 217.820312 124.085938 217.550781 123.816406 C 206.492188 115.441406 198.398438 104.097656 193.273438 90.324219 C 196.242188 81.410156 197.589844 73.574219 198.128906 68.714844 L 204.0625 68.714844 C 205.140625 80.597656 210.535156 110.039062 235.890625 130.839844 Z M 262.859375 147.316406 C 262.859375 149.476562 262.050781 151.640625 260.433594 152.988281 C 258.816406 154.609375 256.925781 155.421875 254.769531 155.421875 C 250.183594 155.421875 246.679688 151.640625 246.679688 147.316406 C 246.679688 147.316406 246.679688 128.410156 246.679688 128.410156 C 246.679688 126.789062 245.867188 125.167969 244.519531 124.085938 C 221.59375 106.53125 216.199219 80.058594 214.851562 68.984375 L 231.035156 68.984375 C 232.113281 80.867188 237.507812 110.3125 262.859375 131.109375 Z M 289.832031 147.316406 C 289.832031 149.476562 289.023438 151.640625 287.40625 152.988281 C 285.785156 154.609375 283.898438 155.421875 281.742188 155.421875 C 277.15625 155.421875 273.648438 151.640625 273.648438 147.316406 C 273.648438 147.316406 273.648438 128.410156 273.648438 128.410156 C 273.648438 126.789062 272.839844 125.167969 271.492188 124.085938 C 248.566406 106.53125 243.171875 80.058594 241.824219 68.984375 L 258.003906 68.984375 C 259.085938 80.867188 264.480469 110.3125 289.832031 131.109375 Z M 316.804688 147.316406 C 316.804688 151.910156 313.296875 155.421875 308.710938 155.421875 C 304.125 155.421875 300.621094 151.640625 300.621094 147.316406 L 300.621094 128.410156 C 300.621094 126.789062 299.8125 125.167969 298.460938 124.085938 C 275.535156 106.53125 270.144531 80.058594 268.792969 68.984375 L 280.121094 68.984375 C 282.820312 68.984375 284.976562 70.875 285.515625 73.574219 C 287.675781 87.351562 294.417969 112.472656 316.804688 131.109375 Z M 316.804688 147.316406 " fill-opacity="1" fill-rule="nonzero"/></g></svg>